# xmcd
#
# Track frame offsets:
#	150
#	12677
#	32646
#	41801
#	83149
#	102757
#	120115
#	135243
#	157242
#	174410
#	189856
#	199757
#	214198
#	227951
#	244682
#	261693
#	275526
#	293513
#	308931
#	329328
#	342619
#
# Disc length: 4737 seconds
#
# Revision: 0
# Processed by: cddbd v1.5.2PL0 Copyright (c) Steve Scherf et al.
# Submitted via: EasyCDDAExtractor 2010.6.0.0
#
DISCID=34127f15
DTITLE=Various Artist - Country Hits, Vol. 24
DYEAR=2010
DGENRE=Country
TTITLE0=Confederate Railroad - She Took It Like a Man
TTITLE1=Micky and The Motorcars - Long Enough to Leave
TTITLE2=Jann Browne - Love's Gonna Live Here
TTITLE3=Marty Stuart - Three Chiefs
TTITLE4=Corb Lund - A Game In Town Like This
TTITLE5=Diamond Rio - Walkin' Away
TTITLE6=Gary Allan - She's So California
TTITLE7=George Jones - You And Me And Time (With Georgette Jones)
TTITLE8=Confederate Railroad - Long Gone
TTITLE9=Jackson Taylor - Lonely
TTITLE10=Jann Browne - I Don't Care
TTITLE11=McBride and The Ride - Love's On the Line
TTITLE12=Micky and The Motorcars - Misunderstood
TTITLE13=Diamond Rio - Nowhere Bound
TTITLE14=The Kentucky Headhunters - Walk Softly On This Heart Of Mine
TTITLE15=George Jones - Tavern Choir (With Jim Lauderdale)
TTITLE16=Jackson Taylor - Miles
TTITLE17=The Notorious Cherry Bombs - If I Ever Break Your Heart
TTITLE18=Gary Allan - Half Of My Mistakes
TTITLE19=Confederate Railroad - You Don't Know What It's Like
TTITLE20=The Notorious Cherry Bombs - Wait A Minute
EXTD=
EXTT0=
EXTT1=
EXTT2=
EXTT3=
EXTT4=
EXTT5=
EXTT6=
EXTT7=
EXTT8=
EXTT9=
EXTT10=
EXTT11=
EXTT12=
EXTT13=
EXTT14=
EXTT15=
EXTT16=
EXTT17=
EXTT18=
EXTT19=
EXTT20=
PLAYORDER=
